<svg width="115" height="28" viewBox="0 0 115 28" fill="none" xmlns="http://www.w3.org/2000/svg">
<path d="M55.434 6.96972V3.89143C55.434 3.89143 55.434 3.6591 55.434 3.54294C55.434 3.3687 55.434 3.19446 55.549 3.02021C55.664 2.49748 55.894 2.03284 56.1815 1.62627C56.8715 0.638891 58.0215 0 59.344 0V3.07829C59.344 4.53032 58.539 5.8081 57.389 6.44699C57.2165 6.56316 57.044 6.62124 56.929 6.67932C56.6415 6.79548 56.2965 6.91164 56.009 6.91164C56.009 6.91164 55.7215 6.91164 55.549 6.91164L55.434 6.96972Z" fill="url(#paint0_linear_69_218)"/>
<path d="M4.0575 9.2605H7.79501V14.8363L12.395 9.2605H16.765L11.705 15.1848L16.9375 23.0257H12.4525L9.11752 17.9146L7.73751 19.4828V23.0257H4V9.2605H4.0575Z" fill="url(#paint1_linear_69_218)"/>
<path d="M24.7576 9.14404H28.3226L34.0151 23.0254H30.0476L29.0701 20.586H23.8951L22.9176 23.0254H19.0076L24.7001 9.14404H24.7576ZM28.0351 17.5658L26.5401 13.6744L25.0451 17.5658H28.0351Z" fill="url(#paint2_linear_69_218)"/>
<path d="M37.8102 9.2605H44.1352C46.2052 9.2605 47.5852 9.78323 48.5052 10.7706C49.3102 11.5257 49.7127 12.6292 49.7127 13.9651C49.7127 16.1141 48.6202 17.508 46.9527 18.2631L50.1727 23.0838H45.8602L43.1577 18.9019H41.5477V23.0838H37.8102V9.2605ZM43.9627 15.8817C45.2277 15.8817 45.9752 15.2428 45.9752 14.2555C45.9752 13.1519 45.2277 12.5711 43.9627 12.5711H41.5477V15.8817H44.0202H43.9627Z" fill="url(#paint3_linear_69_218)"/>
<path d="M54.1401 9.2605H57.8776V23.0257H54.1401V9.2605Z" fill="url(#paint4_linear_69_218)"/>
<path d="M61.7881 20.9925L63.8581 18.4369C65.1806 19.5405 66.6756 20.0632 68.2281 20.0632C69.2056 20.0632 69.7806 19.7147 69.7806 19.1339C69.7806 18.495 69.3206 18.2046 67.5381 17.798C64.6631 17.1011 62.4781 16.2879 62.4781 13.442C62.4781 10.8283 64.4331 8.96973 67.6531 8.96973C69.9531 8.96973 71.7356 9.60862 73.1731 10.8283L71.3331 13.5C70.1256 12.6288 68.7456 12.1642 67.5956 12.1642C66.6756 12.1642 66.2731 12.5707 66.2731 13.0354C66.2731 13.7324 66.7331 13.9647 68.5731 14.4293C71.6781 15.1263 73.5756 16.1137 73.5756 18.7273C73.5756 21.5733 71.3906 23.2577 68.1706 23.2577C65.8131 23.2577 63.5131 22.5026 61.9031 20.9925H61.7881Z" fill="url(#paint5_linear_69_218)"/>
<path d="M77.7725 9.2605H81.6825L84.9025 14.604L88.1225 9.2605H92.0325V23.0257H88.3525V15.1267L84.9025 20.5282H84.845L81.4525 15.1848V23.0838H77.83V9.2605H77.7725Z" fill="url(#paint6_linear_69_218)"/>
<path d="M101.52 9.14404H105.085L110.778 23.0254H106.81L105.833 20.586H100.658L99.6802 23.0254H95.7701L101.463 9.14404H101.52ZM104.798 17.5658L103.303 13.6744L101.808 17.5658H104.798Z" fill="url(#paint7_linear_69_218)"/>
<defs>
<linearGradient id="paint0_linear_69_218" x1="55.4894" y1="1.77628" x2="59.6532" y2="3.57603" gradientUnits="userSpaceOnUse">
<stop stop-color="#1488CC"/>
<stop offset="1" stop-color="#2B32B2"/>
</linearGradient>
<linearGradient id="paint1_linear_69_218" x1="4.18329" y1="12.7687" x2="14.9099" y2="20.5362" gradientUnits="userSpaceOnUse">
<stop stop-color="#1488CC"/>
<stop offset="1" stop-color="#2B32B2"/>
</linearGradient>
<linearGradient id="paint2_linear_69_218" x1="19.2202" y1="12.6818" x2="30.4182" y2="22.0094" gradientUnits="userSpaceOnUse">
<stop stop-color="#1488CC"/>
<stop offset="1" stop-color="#2B32B2"/>
</linearGradient>
<linearGradient id="paint3_linear_69_218" x1="37.9853" y1="12.7835" x2="48.5798" y2="20.0836" gradientUnits="userSpaceOnUse">
<stop stop-color="#1488CC"/>
<stop offset="1" stop-color="#2B32B2"/>
</linearGradient>
<linearGradient id="paint4_linear_69_218" x1="54.1931" y1="12.7687" x2="58.7188" y2="13.7154" gradientUnits="userSpaceOnUse">
<stop stop-color="#1488CC"/>
<stop offset="1" stop-color="#2B32B2"/>
</linearGradient>
<linearGradient id="paint5_linear_69_218" x1="61.9551" y1="12.6111" x2="72.5659" y2="19.3557" gradientUnits="userSpaceOnUse">
<stop stop-color="#1488CC"/>
<stop offset="1" stop-color="#2B32B2"/>
</linearGradient>
<linearGradient id="paint6_linear_69_218" x1="77.9745" y1="12.7835" x2="89.0198" y2="21.5624" gradientUnits="userSpaceOnUse">
<stop stop-color="#1488CC"/>
<stop offset="1" stop-color="#2B32B2"/>
</linearGradient>
<linearGradient id="paint7_linear_69_218" x1="95.9828" y1="12.6818" x2="107.181" y2="22.0094" gradientUnits="userSpaceOnUse">
<stop stop-color="#1488CC"/>
<stop offset="1" stop-color="#2B32B2"/>
</linearGradient>
</defs>
</svg>
