<svg width="107" height="24" viewBox="0 0 107 24" fill="none" xmlns="http://www.w3.org/2000/svg">
<path d="M51.434 6.96972V3.89143C51.434 3.89143 51.434 3.6591 51.434 3.54294C51.434 3.3687 51.434 3.19446 51.549 3.02021C51.664 2.49748 51.894 2.03284 52.1815 1.62627C52.8715 0.638891 54.0215 0 55.344 0V3.07829C55.344 4.53032 54.539 5.8081 53.389 6.44699C53.2165 6.56316 53.044 6.62124 52.929 6.67932C52.6415 6.79548 52.2965 6.91164 52.009 6.91164C52.009 6.91164 51.7215 6.91164 51.549 6.91164L51.434 6.96972Z" fill="white"/>
<path d="M0.0574999 9.2605H3.79501V14.8363L8.395 9.2605H12.765L7.705 15.1848L12.9375 23.0257H8.4525L5.11752 17.9146L3.73751 19.4828V23.0257H0V9.2605H0.0574999Z" fill="white"/>
<path d="M20.7576 9.14404H24.3226L30.0151 23.0254H26.0476L25.0701 20.586H19.8951L18.9176 23.0254H15.0076L20.7001 9.14404H20.7576ZM24.0351 17.5658L22.5401 13.6744L21.0451 17.5658H24.0351Z" fill="white"/>
<path d="M33.8102 9.2605H40.1352C42.2052 9.2605 43.5852 9.78323 44.5052 10.7706C45.3102 11.5257 45.7127 12.6292 45.7127 13.9651C45.7127 16.1141 44.6202 17.508 42.9527 18.2631L46.1727 23.0838H41.8602L39.1577 18.9019H37.5477V23.0838H33.8102V9.2605ZM39.9627 15.8817C41.2277 15.8817 41.9752 15.2428 41.9752 14.2555C41.9752 13.1519 41.2277 12.5711 39.9627 12.5711H37.5477V15.8817H40.0202H39.9627Z" fill="white"/>
<path d="M50.1401 9.2605H53.8776V23.0257H50.1401V9.2605Z" fill="white"/>
<path d="M57.7881 20.9925L59.8581 18.4369C61.1806 19.5405 62.6756 20.0632 64.2281 20.0632C65.2056 20.0632 65.7806 19.7147 65.7806 19.1339C65.7806 18.495 65.3206 18.2046 63.5381 17.798C60.6631 17.1011 58.4781 16.2879 58.4781 13.442C58.4781 10.8283 60.4331 8.96973 63.6531 8.96973C65.9531 8.96973 67.7356 9.60862 69.1731 10.8283L67.3331 13.5C66.1256 12.6288 64.7456 12.1642 63.5956 12.1642C62.6756 12.1642 62.2731 12.5707 62.2731 13.0354C62.2731 13.7324 62.7331 13.9647 64.5731 14.4293C67.6781 15.1263 69.5756 16.1137 69.5756 18.7273C69.5756 21.5733 67.3906 23.2577 64.1706 23.2577C61.8131 23.2577 59.5131 22.5026 57.9031 20.9925H57.7881Z" fill="white"/>
<path d="M73.7725 9.2605H77.6825L80.9025 14.604L84.1225 9.2605H88.0325V23.0257H84.3525V15.1267L80.9025 20.5282H80.845L77.4525 15.1848V23.0838H73.83V9.2605H73.7725Z" fill="white"/>
<path d="M97.52 9.14404H101.085L106.778 23.0254H102.81L101.833 20.586H96.658L95.6802 23.0254H91.7701L97.463 9.14404H97.52ZM100.798 17.5658L99.303 13.6744L97.808 17.5658H100.798Z" fill="white"/>
</svg>
