<svg width="155" height="37" viewBox="0 0 155 37" fill="none" xmlns="http://www.w3.org/2000/svg">
<path d="M32.8823 11.019V20.7559C32.8823 21.1058 32.8823 21.4556 32.8823 21.8054C32.8823 22.3885 32.7647 22.9715 32.5882 23.4963C32.5882 23.4963 32.5882 23.5546 32.5882 23.6129C32.2353 25.1871 31.5294 26.5864 30.647 27.8108C28.4117 30.9593 24.7058 33 20.5881 33V23.2631C20.5881 18.7153 23.1175 14.6922 26.8235 12.5932C27.2941 12.3017 27.8235 12.0685 28.4117 11.8353C29.3529 11.4271 30.3529 11.1939 31.4117 11.0773H31.5294C32 11.019 32.4706 10.9607 33 10.9607L32.8823 11.019Z" fill="url(#paint0_linear_69_218)"/>
<path d="M17.8237 32.7097V18.5999C17.8237 11.0785 11.6471 4.9565 4 4.9565V19.008C4 26.5877 10.1765 32.7097 17.8237 32.7097Z" fill="url(#paint1_linear_69_218)"/>
<path d="M29.8829 4.66441C29.8829 7.22983 27.7653 9.32882 25.177 9.32882C22.5887 9.32882 20.4711 7.22983 20.4711 4.66441C20.4711 2.09898 22.5887 0 25.177 0C27.7653 0 29.8829 2.09898 29.8829 4.66441Z" fill="url(#paint2_linear_69_218)"/>
<path d="M95.434 8.96972V5.89143C95.434 5.89143 95.434 5.6591 95.434 5.54294C95.434 5.3687 95.434 5.19446 95.549 5.02021C95.664 4.49748 95.894 4.03284 96.1815 3.62627C96.8715 2.63889 98.0215 2 99.344 2V5.07829C99.344 6.53032 98.539 7.8081 97.389 8.44699C97.2165 8.56316 97.044 8.62124 96.929 8.67932C96.6415 8.79548 96.2965 8.91164 96.009 8.91164C96.009 8.91164 95.7215 8.91164 95.549 8.91164L95.434 8.96972Z" fill="url(#paint3_linear_69_218)"/>
<path d="M44.0575 11.2605H47.795V16.8363L52.395 11.2605H56.765L51.705 17.1848L56.9375 25.0257H52.4525L49.1175 19.9146L47.7375 21.4828V25.0257H44V11.2605H44.0575Z" fill="url(#paint4_linear_69_218)"/>
<path d="M64.7576 11.144H68.3226L74.0151 25.0254H70.0476L69.0701 22.586H63.8951L62.9176 25.0254H59.0076L64.7001 11.144H64.7576ZM68.0351 19.5658L66.5401 15.6744L65.0451 19.5658H68.0351Z" fill="url(#paint5_linear_69_218)"/>
<path d="M77.8102 11.2605H84.1352C86.2052 11.2605 87.5852 11.7832 88.5052 12.7706C89.3102 13.5257 89.7127 14.6292 89.7127 15.9651C89.7127 18.1141 88.6202 19.508 86.9527 20.2631L90.1727 25.0838H85.8602L83.1577 20.9019H81.5477V25.0838H77.8102V11.2605ZM83.9627 17.8817C85.2277 17.8817 85.9752 17.2428 85.9752 16.2555C85.9752 15.1519 85.2277 14.5711 83.9627 14.5711H81.5477V17.8817H84.0202H83.9627Z" fill="url(#paint6_linear_69_218)"/>
<path d="M94.1401 11.2605H97.8776V25.0257H94.1401V11.2605Z" fill="url(#paint7_linear_69_218)"/>
<path d="M101.788 22.9925L103.858 20.4369C105.181 21.5405 106.676 22.0632 108.228 22.0632C109.206 22.0632 109.781 21.7147 109.781 21.1339C109.781 20.495 109.321 20.2046 107.538 19.798C104.663 19.1011 102.478 18.2879 102.478 15.442C102.478 12.8283 104.433 10.9697 107.653 10.9697C109.953 10.9697 111.736 11.6086 113.173 12.8283L111.333 15.5C110.126 14.6288 108.746 14.1642 107.596 14.1642C106.676 14.1642 106.273 14.5707 106.273 15.0354C106.273 15.7324 106.733 15.9647 108.573 16.4293C111.678 17.1263 113.576 18.1137 113.576 20.7273C113.576 23.5733 111.391 25.2577 108.171 25.2577C105.813 25.2577 103.513 24.5026 101.903 22.9925H101.788Z" fill="url(#paint8_linear_69_218)"/>
<path d="M117.772 11.2605H121.682L124.902 16.604L128.122 11.2605H132.033V25.0257H128.353V17.1267L124.902 22.5282H124.845L121.452 17.1848V25.0838H117.83V11.2605H117.772Z" fill="url(#paint9_linear_69_218)"/>
<path d="M141.52 11.144H145.085L150.778 25.0254H146.81L145.833 22.586H140.658L139.68 25.0254H135.77L141.463 11.144H141.52ZM144.798 19.5658L143.303 15.6744L141.808 19.5658H144.798Z" fill="url(#paint10_linear_69_218)"/>
<defs>
<linearGradient id="paint0_linear_69_218" x1="4.41086" y1="8.41029" x2="29.5422" y2="25.4261" gradientUnits="userSpaceOnUse">
<stop stop-color="#1488CC"/>
<stop offset="1" stop-color="#2B32B2"/>
</linearGradient>
<linearGradient id="paint1_linear_69_218" x1="4.41086" y1="8.41029" x2="29.5422" y2="25.4261" gradientUnits="userSpaceOnUse">
<stop stop-color="#1488CC"/>
<stop offset="1" stop-color="#2B32B2"/>
</linearGradient>
<linearGradient id="paint2_linear_69_218" x1="4.41086" y1="8.41029" x2="29.5422" y2="25.4261" gradientUnits="userSpaceOnUse">
<stop stop-color="#1488CC"/>
<stop offset="1" stop-color="#2B32B2"/>
</linearGradient>
<linearGradient id="paint3_linear_69_218" x1="95.4894" y1="3.77628" x2="99.6532" y2="5.57603" gradientUnits="userSpaceOnUse">
<stop stop-color="#1488CC"/>
<stop offset="1" stop-color="#2B32B2"/>
</linearGradient>
<linearGradient id="paint4_linear_69_218" x1="44.1833" y1="14.7687" x2="54.9099" y2="22.5362" gradientUnits="userSpaceOnUse">
<stop stop-color="#1488CC"/>
<stop offset="1" stop-color="#2B32B2"/>
</linearGradient>
<linearGradient id="paint5_linear_69_218" x1="59.2202" y1="14.6818" x2="70.4182" y2="24.0094" gradientUnits="userSpaceOnUse">
<stop stop-color="#1488CC"/>
<stop offset="1" stop-color="#2B32B2"/>
</linearGradient>
<linearGradient id="paint6_linear_69_218" x1="77.9853" y1="14.7835" x2="88.5798" y2="22.0836" gradientUnits="userSpaceOnUse">
<stop stop-color="#1488CC"/>
<stop offset="1" stop-color="#2B32B2"/>
</linearGradient>
<linearGradient id="paint7_linear_69_218" x1="94.1931" y1="14.7687" x2="98.7188" y2="15.7154" gradientUnits="userSpaceOnUse">
<stop stop-color="#1488CC"/>
<stop offset="1" stop-color="#2B32B2"/>
</linearGradient>
<linearGradient id="paint8_linear_69_218" x1="101.955" y1="14.6111" x2="112.566" y2="21.3557" gradientUnits="userSpaceOnUse">
<stop stop-color="#1488CC"/>
<stop offset="1" stop-color="#2B32B2"/>
</linearGradient>
<linearGradient id="paint9_linear_69_218" x1="117.974" y1="14.7835" x2="129.02" y2="23.5624" gradientUnits="userSpaceOnUse">
<stop stop-color="#1488CC"/>
<stop offset="1" stop-color="#2B32B2"/>
</linearGradient>
<linearGradient id="paint10_linear_69_218" x1="135.983" y1="14.6818" x2="147.181" y2="24.0094" gradientUnits="userSpaceOnUse">
<stop stop-color="#1488CC"/>
<stop offset="1" stop-color="#2B32B2"/>
</linearGradient>
</defs>
</svg>
