<svg width="52" height="52" viewBox="0 0 52 52" fill="none" xmlns="http://www.w3.org/2000/svg">
<path d="M46.8296 18.1006V32.3279C46.8296 32.8391 46.8296 33.3502 46.8296 33.8614C46.8296 34.7133 46.6593 35.5653 46.4037 36.332C46.4037 36.332 46.4037 36.4172 46.4037 36.5024C45.8925 38.8026 44.8702 40.8473 43.5923 42.6363C40.3549 47.2368 34.9877 50.2186 29.0242 50.2186V35.9912C29.0242 29.3461 32.6875 23.4678 38.0547 20.4008C38.7362 19.9748 39.503 19.6341 40.3549 19.2933C41.718 18.6969 43.1663 18.3562 44.6998 18.1858H44.8702C45.5517 18.1006 46.2333 18.0154 47 18.0154L46.8296 18.1006Z" fill="white"/>
<path d="M25.0205 49.7944V29.1775C25.0205 18.1875 16.0752 9.24219 5 9.24219V29.7739C5 40.849 13.9453 49.7944 25.0205 49.7944Z" fill="white"/>
<path d="M42.4856 8.81549C42.4856 12.564 39.4186 15.631 35.6701 15.631C31.9216 15.631 28.8546 12.564 28.8546 8.81549C28.8546 5.06697 31.9216 2 35.6701 2C39.4186 2 42.4856 5.06697 42.4856 8.81549Z" fill="white"/>
</svg>
