<svg width="193" height="45" viewBox="0 0 193 45" fill="none" xmlns="http://www.w3.org/2000/svg">
<rect width="128.748" height="42.0246" transform="matrix(-1 0 0 1 129.748 1.76407)" fill="white" stroke="black" stroke-width="1.91021"/>
<path d="M12.0957 8.91994H17.6315L21.9237 25.7279H22.0039V8.91994H25.9351V37H21.4022L16.1071 16.5016H16.0269V37H12.0957V8.91994ZM32.6245 8.91994H38.6016L43.1746 37H38.762L37.9597 31.4241V31.5043H32.9454L32.1432 37H28.0515L32.6245 8.91994ZM37.4383 27.6935L35.4727 13.8139H35.3924L33.4669 27.6935H37.4383ZM45.3154 8.91994H49.728V32.9886H56.9887V37H45.3154V8.91994ZM62.6711 8.91994H68.6482L73.2212 37H68.8086L68.0063 31.4241V31.5043H62.992L62.1898 37H58.0981L62.6711 8.91994ZM67.4849 27.6935L65.5193 13.8139H65.439L63.5135 27.6935H67.4849ZM75.362 8.91994H81.9006C84.1738 8.91994 85.8319 9.4548 86.8748 10.5245C87.9178 11.5675 88.4393 13.1854 88.4393 15.3784V17.1033C88.4393 20.0183 87.4765 21.8635 85.5511 22.6391V22.7193C86.6208 23.0402 87.3696 23.6954 87.7975 24.6849C88.2521 25.6744 88.4794 26.9982 88.4794 28.6562V33.5903C88.4794 34.3926 88.5061 35.0478 88.5596 35.5559C88.6131 36.0373 88.7468 36.5186 88.9608 37H84.468C84.3075 36.5454 84.2005 36.1175 84.147 35.7163C84.0936 35.3152 84.0668 34.5931 84.0668 33.5502V28.4155C84.0668 27.1319 83.8529 26.236 83.425 25.7279C83.0238 25.2197 82.3152 24.9657 81.2989 24.9657H79.7746V37H75.362V8.91994ZM81.3792 20.9543C82.2617 20.9543 82.9169 20.7269 83.3448 20.2723C83.7994 19.8177 84.0267 19.0555 84.0267 17.9858V15.8196C84.0267 14.8034 83.8395 14.068 83.4651 13.6133C83.1174 13.1587 82.5558 12.9314 81.7803 12.9314H79.7746V20.9543H81.3792ZM91.7368 32.7479H95.9889V37H91.7368V32.7479ZM99.2974 8.91994H103.71V37H99.2974V8.91994ZM107.015 8.91994H112.551L116.843 25.7279H116.923V8.91994H120.854V37H116.321L111.026 16.5016H110.946V37H107.015V8.91994Z" fill="black"/>
<path d="M177.857 27.1472C177.857 26.2826 177.995 25.5449 178.272 24.934C178.548 24.3115 179.044 23.6257 179.759 22.8764C180.462 22.1271 180.946 21.4874 181.211 20.9572C181.488 20.4269 181.626 19.8736 181.626 19.2973C181.626 18.7785 181.54 18.4212 181.367 18.2252C181.205 18.0178 180.963 17.914 180.641 17.914C179.984 17.914 179.655 18.3117 179.655 19.1071V20.4039H177.857V19.2281C177.857 18.2483 178.099 17.499 178.583 16.9803C179.067 16.4501 179.77 16.185 180.692 16.185C181.615 16.185 182.318 16.4501 182.802 16.9803C183.286 17.499 183.528 18.2483 183.528 19.2281C183.528 19.9658 183.349 20.6863 182.992 21.3894C182.646 22.0926 182.041 22.8995 181.177 23.8101C180.612 24.4095 180.231 24.8994 180.035 25.2798C179.839 25.6486 179.741 26.0463 179.741 26.4728V26.7322H183.355V28.4612H177.857V27.1472ZM187.564 28.6341C186.63 28.6341 185.915 28.369 185.42 27.8388C184.924 27.3085 184.676 26.5593 184.676 25.591V19.2281C184.676 18.2598 184.924 17.5106 185.42 16.9803C185.915 16.4501 186.63 16.185 187.564 16.185C188.497 16.185 189.212 16.4501 189.708 16.9803C190.203 17.5106 190.451 18.2598 190.451 19.2281V25.591C190.451 26.5593 190.203 27.3085 189.708 27.8388C189.212 28.369 188.497 28.6341 187.564 28.6341ZM187.564 26.9051C188.221 26.9051 188.549 26.5074 188.549 25.712V19.1071C188.549 18.3117 188.221 17.914 187.564 17.914C186.907 17.914 186.578 18.3117 186.578 19.1071V25.712C186.578 26.5074 186.907 26.9051 187.564 26.9051Z" fill="black"/>
<path d="M177.857 42.5164C177.857 41.6519 177.995 40.9141 178.272 40.3032C178.548 39.6807 179.044 38.9949 179.759 38.2456C180.462 37.4964 180.946 36.8566 181.211 36.3264C181.488 35.7961 181.626 35.2428 181.626 34.6665C181.626 34.1478 181.54 33.7904 181.367 33.5945C181.205 33.387 180.963 33.2832 180.641 33.2832C179.984 33.2832 179.655 33.6809 179.655 34.4763V35.7731H177.857V34.5973C177.857 33.6175 178.099 32.8683 178.583 32.3496C179.067 31.8193 179.77 31.5542 180.692 31.5542C181.615 31.5542 182.318 31.8193 182.802 32.3496C183.286 32.8683 183.528 33.6175 183.528 34.5973C183.528 35.3351 183.349 36.0555 182.992 36.7586C182.646 37.4618 182.041 38.2687 181.177 39.1793C180.612 39.7787 180.231 40.2686 180.035 40.649C179.839 41.0179 179.741 41.4156 179.741 41.8421V42.1014H183.355V43.8305H177.857V42.5164ZM184.78 42.5164C184.78 41.6519 184.918 40.9141 185.195 40.3032C185.471 39.6807 185.967 38.9949 186.682 38.2456C187.385 37.4964 187.869 36.8566 188.134 36.3264C188.411 35.7961 188.549 35.2428 188.549 34.6665C188.549 34.1478 188.463 33.7904 188.29 33.5945C188.128 33.387 187.886 33.2832 187.564 33.2832C186.907 33.2832 186.578 33.6809 186.578 34.4763V35.7731H184.78V34.5973C184.78 33.6175 185.022 32.8683 185.506 32.3496C185.99 31.8193 186.693 31.5542 187.615 31.5542C188.538 31.5542 189.241 31.8193 189.725 32.3496C190.209 32.8683 190.451 33.6175 190.451 34.5973C190.451 35.3351 190.272 36.0555 189.915 36.7586C189.569 37.4618 188.964 38.2687 188.1 39.1793C187.535 39.7787 187.154 40.2686 186.958 40.649C186.762 41.0179 186.664 41.4156 186.664 41.8421V42.1014H190.278V43.8305H184.78V42.5164Z" fill="black"/>
<rect x="129.919" y="1.7659" width="42.0246" height="42.0246" fill="#E73087" stroke="black" stroke-width="1.91021"/>
<mask id="mask0_73_370" style="mask-type:alpha" maskUnits="userSpaceOnUse" x="128" y="0" width="45" height="45">
<rect x="129.918" y="1.7659" width="42.0246" height="42.0246" fill="#E80973" stroke="black" stroke-width="1.91021"/>
</mask>
<g mask="url(#mask0_73_370)">
<circle cx="151.142" cy="23.1584" r="14.1355" stroke="black" stroke-width="0.764083"/>
<circle cx="151.141" cy="22.7764" r="21.0123" stroke="black" stroke-width="0.764083"/>
<circle cx="150.951" cy="22.9674" r="23.4956" stroke="black" stroke-width="0.764083"/>
<circle cx="150.951" cy="22.9674" r="25.7878" stroke="black" stroke-width="0.764083"/>
<circle cx="150.95" cy="22.9674" r="18.9111" stroke="black" stroke-width="0.764083"/>
<circle cx="150.951" cy="22.9674" r="16.6188" stroke="black" stroke-width="0.764083"/>
</g>
<path d="M129.919 43.7905L171.943 43.7905L150.931 22.7782L129.919 1.76589L129.919 43.7905Z" fill="#5830F9" stroke="black" stroke-width="1.91021" stroke-linejoin="bevel"/>
<mask id="mask1_73_370" style="mask-type:alpha" maskUnits="userSpaceOnUse" x="128" y="0" width="45" height="45">
<rect x="129.918" y="1.7659" width="42.0246" height="42.0246" fill="#3E0EFD" stroke="black" stroke-width="1.91021"/>
</mask>
<g mask="url(#mask1_73_370)">
<line x1="95.9694" y1="5.56332" x2="133.926" y2="43.5203" stroke="black" stroke-width="0.764083"/>
<line x1="92.2936" y1="5.56332" x2="130.251" y2="43.5203" stroke="black" stroke-width="0.764083"/>
<line x1="99.6451" y1="5.56332" x2="137.602" y2="43.5203" stroke="black" stroke-width="0.764083"/>
<line x1="106.997" y1="5.56332" x2="144.954" y2="43.5203" stroke="black" stroke-width="0.764083"/>
<line x1="103.321" y1="5.56332" x2="141.278" y2="43.5203" stroke="black" stroke-width="0.764083"/>
<line x1="110.672" y1="5.56332" x2="148.63" y2="43.5203" stroke="black" stroke-width="0.764083"/>
<line x1="118.024" y1="5.56332" x2="155.981" y2="43.5203" stroke="black" stroke-width="0.764083"/>
<line x1="114.348" y1="5.56332" x2="152.305" y2="43.5203" stroke="black" stroke-width="0.764083"/>
<line x1="121.7" y1="5.56332" x2="159.657" y2="43.5203" stroke="black" stroke-width="0.764083"/>
<line x1="129.051" y1="5.56332" x2="167.008" y2="43.5203" stroke="black" stroke-width="0.764083"/>
<line x1="125.376" y1="5.56332" x2="163.333" y2="43.5203" stroke="black" stroke-width="0.764083"/>
</g>
<circle cx="150.93" cy="23.1561" r="11.5072" fill="#FFC347" stroke="black" stroke-width="1.52817"/>
<line x1="153.053" y1="32.1364" x2="154.581" y2="32.1364" stroke="black" stroke-width="0.382042"/>
<line x1="153.053" y1="30.9903" x2="154.199" y2="30.9903" stroke="black" stroke-width="0.382042"/>
<rect x="145.412" y="33.4735" width="11.0792" height="3.43837" rx="1.71919" fill="#C4C4C4" stroke="black" stroke-width="1.52817"/>
<rect x="145.412" y="36.9119" width="11.0792" height="3.43837" rx="1.71919" fill="#C4C4C4" stroke="black" stroke-width="1.52817"/>
<rect x="145.412" y="40.3503" width="11.0792" height="3.43837" rx="1.71919" fill="#C4C4C4" stroke="black" stroke-width="1.52817"/>
<mask id="path-32-inside-1_73_370" fill="white">
<path fill-rule="evenodd" clip-rule="evenodd" d="M152.689 24.5752C153.156 24.1188 153.445 23.4823 153.445 22.7782C153.445 21.3897 152.319 20.2642 150.931 20.2642C149.543 20.2642 148.417 21.3897 148.417 22.7782C148.417 23.4823 148.706 24.1187 149.173 24.5751V33.6816H152.689V24.5752Z"/>
</mask>
<path fill-rule="evenodd" clip-rule="evenodd" d="M152.689 24.5752C153.156 24.1188 153.445 23.4823 153.445 22.7782C153.445 21.3897 152.319 20.2642 150.931 20.2642C149.543 20.2642 148.417 21.3897 148.417 22.7782C148.417 23.4823 148.706 24.1187 149.173 24.5751V33.6816H152.689V24.5752Z" fill="#FF932F"/>
<path d="M152.689 24.5752L151.888 23.756L151.543 24.0932V24.5752H152.689ZM149.173 24.5751H150.319V24.0931L149.974 23.756L149.173 24.5751ZM149.173 33.6816H148.027V34.8278H149.173V33.6816ZM152.689 33.6816V34.8278H153.835V33.6816H152.689ZM152.299 22.7782C152.299 23.1615 152.143 23.5064 151.888 23.756L153.491 25.3944C154.168 24.7313 154.591 23.8031 154.591 22.7782H152.299ZM150.931 21.4103C151.686 21.4103 152.299 22.0227 152.299 22.7782H154.591C154.591 20.7567 152.952 19.118 150.931 19.118V21.4103ZM149.563 22.7782C149.563 22.0227 150.176 21.4103 150.931 21.4103V19.118C148.91 19.118 147.271 20.7567 147.271 22.7782H149.563ZM149.974 23.756C149.719 23.5063 149.563 23.1615 149.563 22.7782H147.271C147.271 23.803 147.694 24.7312 148.371 25.3943L149.974 23.756ZM150.319 33.6816V24.5751H148.027V33.6816H150.319ZM152.689 32.5355H149.173V34.8278H152.689V32.5355ZM151.543 24.5752V33.6816H153.835V24.5752H151.543Z" fill="black" mask="url(#path-32-inside-1_73_370)"/>
<line x1="146.176" y1="38.249" x2="148.086" y2="38.249" stroke="black" stroke-width="0.382042"/>
<line x1="146.176" y1="39.0131" x2="149.232" y2="39.0131" stroke="black" stroke-width="0.382042"/>
<line x1="146.176" y1="34.8107" x2="147.704" y2="34.8107" stroke="black" stroke-width="0.382042"/>
<line x1="153.053" y1="25.2596" x2="154.581" y2="25.2596" stroke="black" stroke-width="0.382042"/>
<line x1="153.053" y1="27.5519" x2="154.581" y2="27.5519" stroke="black" stroke-width="0.382042"/>
<line x1="153.053" y1="26.4058" x2="154.199" y2="26.4058" stroke="black" stroke-width="0.382042"/>
<line x1="153.053" y1="29.8441" x2="154.581" y2="29.8441" stroke="black" stroke-width="0.382042"/>
<line x1="153.053" y1="28.698" x2="154.199" y2="28.698" stroke="black" stroke-width="0.382042"/>
<line x1="146.176" y1="35.5748" x2="148.468" y2="35.5748" stroke="black" stroke-width="0.382042"/>
<line x1="142.737" y1="30.9903" x2="146.558" y2="30.9903" stroke="black" stroke-width="0.382042"/>
<line x1="143.502" y1="32.1364" x2="148.086" y2="32.1364" stroke="black" stroke-width="0.382042"/>
<line x1="141.974" y1="29.8441" x2="145.412" y2="29.8441" stroke="black" stroke-width="0.382042"/>
<line x1="139.681" y1="26.4058" x2="142.737" y2="26.4058" stroke="black" stroke-width="0.382042"/>
<line x1="139.681" y1="25.2596" x2="142.355" y2="25.2596" stroke="black" stroke-width="0.382042"/>
<line x1="139.681" y1="24.1135" x2="141.973" y2="24.1135" stroke="black" stroke-width="0.382042"/>
<line x1="139.681" y1="25.2596" x2="142.355" y2="25.2596" stroke="black" stroke-width="0.382042"/>
<line x1="139.681" y1="22.9674" x2="141.591" y2="22.9674" stroke="black" stroke-width="0.382042"/>
<line x1="139.681" y1="21.8213" x2="141.591" y2="21.8213" stroke="black" stroke-width="0.382042"/>
<line x1="139.681" y1="20.6751" x2="141.591" y2="20.6751" stroke="black" stroke-width="0.382042"/>
<line x1="140.445" y1="27.5519" x2="143.502" y2="27.5519" stroke="black" stroke-width="0.382042"/>
<line x1="141.209" y1="28.698" x2="144.265" y2="28.698" stroke="black" stroke-width="0.382042"/>
<line x1="146.176" y1="41.6874" x2="149.232" y2="41.6874" stroke="black" stroke-width="0.382042"/>
<line x1="146.176" y1="42.4515" x2="150.76" y2="42.4515" stroke="black" stroke-width="0.382042"/>
</svg>
